M48
; DRILL file {KiCad 9.0.7} date 2026-07-12T20:44:06+0300
; FORMAT={-:-/ absolute / metric / decimal}
; #@! TF.CreationDate,2026-07-12T20:44:06+03:00
; #@! TF.GenerationSoftware,Kicad,Pcbnew,9.0.7
; #@! TF.FileFunction,Plated,1,4,PTH
FMAT,2
METRIC
; #@! TA.AperFunction,Plated,PTH,ViaDrill
T1C0.150
; #@! TA.AperFunction,Plated,PTH,ViaDrill
T2C0.150
; #@! TA.AperFunction,Plated,PTH,ComponentDrill
T3C0.200
; #@! TA.AperFunction,Plated,PTH,ComponentDrill
T4C0.500
; #@! TA.AperFunction,Plated,PTH,ComponentDrill
T5C0.600
; #@! TA.AperFunction,Plated,PTH,ComponentDrill
T6C1.000
; #@! TA.AperFunction,Plated,PTH,ViaDrill
T7C1.016
; #@! TA.AperFunction,Plated,PTH,ComponentDrill
T8C1.016
; #@! TA.AperFunction,Plated,PTH,ComponentDrill
T9C1.020
; #@! TA.AperFunction,Plated,PTH,ComponentDrill
T10C1.200
; #@! TA.AperFunction,Plated,PTH,ComponentDrill
T11C1.300
; #@! TA.AperFunction,Plated,PTH,ComponentDrill
T12C1.400
; #@! TA.AperFunction,Plated,PTH,ComponentDrill
T13C2.500
%
G90
G05
T1
X58.5Y-85.0
X61.0Y-74.0
X66.5Y-81.25
X67.5Y-80.75
X68.75Y-82.0
X69.75Y-76.75
X71.527Y-86.5
X72.25Y-77.75
X72.263Y-90.864
X72.422Y-80.078
X72.5Y-78.75
X73.25Y-83.0
X73.487Y-83.445
X73.75Y-83.723
X74.0Y-64.452
X74.0Y-91.0
X74.188Y-78.756
X74.25Y-84.0
X74.273Y-85.5
X74.75Y-83.0
X75.5Y-85.5
X77.0Y-91.0
X77.25Y-83.0
X77.25Y-83.5
X78.5Y-79.25
X78.5Y-83.5
X80.0Y-86.062
X80.034Y-83.034
X80.5Y-95.25
X80.5Y-96.25
X81.0Y-96.25
X84.0Y-100.0
X84.23Y-98.122
X84.25Y-97.75
X84.5Y-100.0
X84.75Y-80.0
X85.0Y-98.0
X85.25Y-80.0
X85.5Y-73.75
X85.918Y-107.0
X86.195Y-107.25
X86.473Y-107.75
X86.75Y-97.75
X86.75Y-108.0
X87.0Y-75.25
X87.0Y-80.0
X87.25Y-66.5
X87.25Y-70.5
X87.5Y-74.25
X87.75Y-99.0
X88.0Y-91.0
X89.251Y-87.749
X89.438Y-76.171
X90.0Y-83.75
X90.148Y-66.761
X90.251Y-88.749
X90.5Y-71.0
X90.5Y-90.0
X91.346Y-74.846
X91.699Y-82.973
X92.0Y-66.5
X92.5Y-64.75
X93.5Y-71.5
X94.0Y-70.5
X94.25Y-64.591
X94.5Y-65.0
X94.5Y-99.5
X95.0Y-62.973
X95.0Y-63.75
X95.03Y-78.53
X95.191Y-80.753
X96.0Y-68.0
X96.0Y-77.4
X96.0Y-78.75
X96.0Y-83.0
X96.376Y-78.689
X97.221Y-64.091
X100.0Y-96.5
X101.25Y-68.75
X102.184Y-75.096
X102.381Y-75.835
X103.5Y-65.75
X105.195Y-63.323
X105.5Y-68.75
X105.75Y-69.5
X106.5Y-63.323
X108.0Y-61.75
X108.75Y-94.5
X109.75Y-63.5
X110.25Y-64.0
X110.341Y-64.659
X110.5Y-87.5
X110.5Y-94.0
X111.25Y-49.5
X111.543Y-88.29
X112.0Y-90.25
X112.0Y-90.75
X112.5Y-91.25
X112.75Y-65.75
X112.75Y-67.0
X112.919Y-78.82
X113.0Y-56.0
X113.2Y-113.8
X113.5Y-62.25
X114.973Y-74.928
X115.527Y-74.5
X117.75Y-61.0
X118.091Y-73.5
X118.25Y-56.25
X118.5Y-61.909
X122.5Y-74.5
X124.5Y-56.5
X147.0Y-67.5
X148.0Y-139.5
X153.0Y-140.5
X154.0Y-137.5
T2
X60.298Y-67.622
X60.5Y-78.409
X60.501Y-80.379
X61.284Y-65.974
X62.567Y-65.329
X63.596Y-65.836
X64.01Y-65.93
X64.506Y-66.087
X64.64Y-80.405
X65.255Y-66.044
X66.039Y-71.622
X66.136Y-77.296
X66.146Y-68.094
X66.294Y-68.614
X66.733Y-70.932
X66.922Y-81.645
X67.077Y-71.884
X67.855Y-74.677
X68.012Y-68.664
X68.203Y-70.098
X68.743Y-67.871
X69.22Y-70.06
X69.608Y-65.741
X69.728Y-71.591
X69.942Y-69.437
X69.981Y-68.203
X70.019Y-68.691
X70.103Y-64.217
X72.079Y-64.218
X72.079Y-79.295
X72.106Y-69.21
X72.776Y-69.592
X73.851Y-80.554
X73.917Y-76.305
X73.944Y-68.488
X76.324Y-91.748
X76.675Y-80.901
X77.138Y-68.285
X79.117Y-79.787
X79.388Y-80.618
X81.836Y-83.172
X82.679Y-73.56
X84.299Y-74.9
X85.04Y-75.587
X85.058Y-93.462
X85.216Y-65.151
X87.043Y-84.509
X87.581Y-87.196
X89.171Y-84.501
X89.205Y-83.403
X89.632Y-65.302
X89.705Y-64.092
X90.017Y-80.746
X90.022Y-77.264
X90.126Y-87.052
X90.348Y-84.05
X90.688Y-64.825
X91.097Y-73.217
X91.381Y-79.927
X91.516Y-84.25
X91.673Y-77.856
X91.751Y-95.071
X91.805Y-71.021
X91.895Y-85.475
X91.899Y-86.784
X92.253Y-74.805
X92.329Y-80.484
X92.526Y-67.446
X92.866Y-80.252
X93.201Y-80.681
X93.468Y-69.509
X94.429Y-87.497
X94.973Y-81.413
X95.135Y-87.07
X95.466Y-68.22
X95.808Y-85.14
X95.924Y-66.192
X96.49Y-64.499
X96.615Y-88.267
X96.624Y-85.837
X96.688Y-79.307
X97.037Y-92.511
X97.191Y-77.144
X97.332Y-67.022
X98.0Y-65.11
X98.018Y-82.282
X98.041Y-83.523
X98.354Y-78.017
X98.378Y-90.101
X98.602Y-68.736
X98.626Y-74.038
X98.628Y-91.967
X99.017Y-79.276
X99.668Y-84.146
X99.67Y-67.35
X99.749Y-78.788
X99.945Y-73.077
X99.965Y-91.365
X100.343Y-92.083
X100.394Y-65.543
X100.488Y-80.847
X100.511Y-78.647
X101.176Y-78.654
X101.214Y-66.97
X101.258Y-67.814
X101.421Y-73.076
X101.465Y-81.636
X101.956Y-78.562
X102.241Y-93.547
X102.297Y-83.015
X102.319Y-78.074
X102.471Y-82.18
X102.605Y-92.338
X102.7Y-72.87
X102.702Y-73.915
X102.931Y-90.831
X103.295Y-77.748
X103.423Y-66.197
X103.457Y-92.524
X103.574Y-75.176
X103.758Y-74.589
X103.844Y-93.486
X104.057Y-93.791
X104.076Y-80.48
X104.232Y-72.248
X104.267Y-88.19
X104.397Y-75.402
X104.523Y-72.931
X104.532Y-64.949
X104.698Y-67.857
X104.789Y-78.433
X104.831Y-76.924
X104.971Y-89.434
X105.235Y-75.977
X105.418Y-80.788
X105.493Y-71.35
X105.585Y-74.822
X105.776Y-91.676
X105.866Y-83.655
X105.885Y-90.889
X105.896Y-67.667
X106.653Y-89.311
X106.681Y-78.101
X107.158Y-75.177
X107.24Y-71.81
X107.286Y-86.858
X107.302Y-87.261
X107.478Y-73.468
X107.574Y-71.447
X107.614Y-77.527
X108.306Y-76.448
X108.511Y-75.514
X108.592Y-67.703
X108.821Y-65.357
X108.989Y-87.981
X109.064Y-69.211
X109.11Y-73.331
X109.165Y-89.257
X109.543Y-68.342
X109.656Y-80.858
X109.81Y-71.601
X110.179Y-70.046
X110.551Y-73.468
X110.937Y-80.328
X111.024Y-87.733
X111.375Y-84.256
X111.508Y-82.784
X111.529Y-89.185
X111.752Y-84.114
X111.817Y-78.138
X111.933Y-87.911
X112.941Y-76.136
X113.231Y-78.151
X113.398Y-82.632
X113.444Y-85.361
X115.717Y-76.135
X116.148Y-81.23
X116.284Y-75.24
X116.284Y-83.156
X121.146Y-80.364
T3
X62.033Y-67.047
X62.033Y-67.777
X62.763Y-67.047
X62.763Y-67.777
X67.157Y-66.231
X67.157Y-66.961
X67.887Y-66.231
X67.887Y-66.961
X76.95Y-71.15
X76.95Y-72.55
X77.65Y-70.45
X77.65Y-71.85
X77.65Y-73.25
X78.35Y-71.15
X78.35Y-72.55
X79.05Y-70.45
X79.05Y-71.85
X79.05Y-73.25
X79.75Y-71.15
X79.75Y-72.55
X108.48Y-77.683
X108.48Y-79.083
X109.68Y-77.683
X109.68Y-79.083
X110.88Y-77.683
X110.88Y-79.083
T4
X157.67Y-139.957
X157.67Y-140.957
X157.67Y-141.957
X157.67Y-142.957
X157.67Y-143.957
X157.67Y-144.957
X157.67Y-145.957
X157.67Y-146.957
X157.685Y-134.902
X157.685Y-135.902
X157.685Y-136.902
X157.685Y-137.902
T6
X151.223Y-74.06
X151.223Y-76.6
X151.223Y-79.14
X151.223Y-81.68
X151.223Y-86.76
X151.223Y-89.3
X151.223Y-91.84
X151.223Y-94.38
X151.223Y-102.0
X151.223Y-104.54
X151.223Y-107.08
X151.223Y-109.62
X151.223Y-114.7
X151.223Y-117.24
X151.223Y-119.78
X151.223Y-122.32
X153.763Y-74.06
X153.763Y-76.6
X153.763Y-79.14
X153.763Y-81.68
X153.763Y-86.76
X153.763Y-89.3
X153.763Y-91.84
X153.763Y-94.38
X153.763Y-102.0
X153.763Y-104.54
X153.763Y-107.08
X153.763Y-109.62
X153.763Y-114.7
X153.763Y-117.24
X153.763Y-119.78
X153.763Y-122.32
X156.303Y-74.06
X156.303Y-76.6
X156.303Y-79.14
X156.303Y-81.68
X156.303Y-86.76
X156.303Y-89.3
X156.303Y-91.84
X156.303Y-94.38
X156.303Y-102.0
X156.303Y-104.54
X156.303Y-107.08
X156.303Y-109.62
X156.303Y-114.7
X156.303Y-117.24
X156.303Y-119.78
X156.303Y-122.32
T7
X107.0Y-53.5
X120.5Y-68.25
T8
X138.523Y-69.107
X138.523Y-127.4
X141.063Y-69.107
X141.063Y-127.4
X143.603Y-69.107
X143.603Y-127.4
X146.143Y-69.107
X146.143Y-127.4
X148.683Y-69.107
X148.683Y-127.4
X151.223Y-69.107
X151.223Y-127.4
T9
X118.13Y-110.5
X120.67Y-110.5
X123.21Y-110.5
X125.75Y-110.5
T10
X94.7Y-102.218
X95.208Y-74.496
X111.043Y-101.581
X119.218Y-95.55
X119.218Y-102.05
X123.316Y-80.248
X125.032Y-87.7
X141.5Y-137.782
X150.4Y-138.0
T11
X63.866Y-92.0
X63.866Y-97.0
X75.978Y-95.466
X75.978Y-100.466
T12
X72.783Y-87.11
X72.783Y-89.61
X76.283Y-87.11
X76.283Y-89.61
X82.083Y-87.11
X82.083Y-89.61
X85.583Y-87.11
X85.583Y-89.61
T13
X135.475Y-70.25
X135.475Y-126.13
X154.525Y-70.25
X154.525Y-126.13
T5
G00X60.9Y-71.0
M15
G01X60.1Y-71.0
M16
G05
G00X60.9Y-79.64
M15
G01X60.1Y-79.64
M16
G05
G00X65.25Y-71.0
M15
G01X64.15Y-71.0
M16
G05
G00X65.25Y-79.64
M15
G01X64.15Y-79.64
M16
G05
M30
